<svg xmlns="http://www.w3.org/2000/svg" xmlns:xlink="http://www.w3.org/1999/xlink" width="40" zoomAndPan="magnify"
     viewBox="0 0 30 30.000001" height="40" preserveAspectRatio="xMidYMid meet" version="1.0">
    <defs>
        <clipPath id="d67f571b1b">
            <path d="M 0.484375 2.902344 L 29.515625 2.902344 L 29.515625 24.675781 L 0.484375 24.675781 Z M 0.484375 2.902344 "
                  clip-rule="nonzero"/>
        </clipPath>
    </defs>
    <g clip-path="url(#d67f571b1b)">
        <path fill="#ea6557"
              d="M 28.535156 6.769531 C 28.550781 6.660156 28.550781 6.546875 28.535156 6.433594 C 28.480469 6.027344 28.242188 5.675781 28.003906 5.34375 C 27.273438 4.3125 26.390625 3.21875 25.136719 3.027344 C 24.402344 2.914062 23.679688 3.136719 22.984375 3.417969 C 22.882812 3.253906 22.742188 3.09375 22.554688 3.078125 C 22.34375 3.058594 22.152344 3.230469 22.078125 3.425781 C 22.003906 3.625 22.015625 3.839844 22.023438 4.050781 C 22.070312 5.898438 21.378906 7.46875 20.992188 9.222656 C 20.832031 9.273438 20.671875 9.332031 20.519531 9.386719 C 18.707031 10.039062 16.820312 10.421875 14.902344 10.652344 C 13.246094 10.855469 11.570312 10.945312 9.902344 11.011719 C 9.664062 11.019531 9.421875 11.03125 9.183594 11.046875 C 8.417969 9.457031 7.421875 8.09375 7.0625 6.3125 C 7.019531 6.105469 6.984375 5.894531 6.867188 5.71875 C 6.75 5.542969 6.527344 5.417969 6.324219 5.484375 C 6.144531 5.542969 6.042969 5.726562 5.984375 5.90625 C 5.242188 5.789062 4.484375 5.734375 3.796875 6.003906 C 2.617188 6.464844 2 7.726562 1.519531 8.894531 C 1.363281 9.269531 1.207031 9.667969 1.246094 10.074219 C 1.253906 10.1875 1.28125 10.296875 1.320312 10.402344 C 0.839844 10.546875 0.503906 10.824219 0.582031 11.316406 C 0.6875 11.9375 1.65625 11.945312 2.019531 12.460938 C 2.109375 12.585938 2.15625 12.738281 2.257812 12.859375 C 2.5625 13.222656 3.164062 13.097656 3.59375 13.3125 C 4.078125 13.558594 4.277344 14.21875 4.796875 14.378906 C 4.984375 14.4375 5.1875 14.421875 5.375 14.484375 C 5.414062 14.5 5.453125 14.519531 5.488281 14.539062 C 5.179688 15.4375 4.941406 16.351562 5.011719 17.320312 C 5.144531 19.160156 6.328125 20.738281 7.5 22.171875 C 7.726562 22.453125 7.964844 22.730469 8.25 22.949219 C 8.078125 23.195312 7.996094 23.5 8.046875 23.875 C 8.101562 24.25 8.390625 24.613281 8.769531 24.644531 C 9.238281 24.683594 9.609375 24.242188 10.070312 24.167969 C 10.632812 24.078125 11.15625 24.539062 11.722656 24.507812 C 12.261719 24.476562 12.679688 24.011719 13.207031 23.894531 C 13.859375 23.753906 14.535156 24.175781 15.191406 24.058594 C 15.761719 23.960938 16.226562 23.472656 16.804688 23.453125 C 17.265625 23.4375 17.6875 23.734375 18.148438 23.785156 C 19.007812 23.882812 19.757812 23.128906 20.621094 23.09375 C 21.132812 23.074219 21.660156 23.304688 22.132812 23.113281 C 22.582031 22.933594 22.851562 22.421875 23.320312 22.324219 C 23.707031 22.242188 24.097656 22.472656 24.488281 22.429688 C 25.039062 22.367188 25.394531 21.726562 25.269531 21.191406 C 25.21875 20.964844 25.097656 20.765625 24.941406 20.59375 C 25.125 20.433594 25.285156 20.257812 25.410156 20.046875 C 25.644531 19.652344 25.734375 19.195312 25.8125 18.746094 C 26.09375 17.101562 26.664062 15.101562 26.207031 13.453125 C 26.039062 12.847656 25.695312 12.320312 25.292969 11.828125 C 25.355469 11.757812 25.417969 11.691406 25.5 11.644531 C 25.664062 11.539062 25.871094 11.511719 26.039062 11.414062 C 26.511719 11.140625 26.554688 10.457031 26.972656 10.109375 C 27.339844 9.804688 27.957031 9.796875 28.171875 9.371094 C 28.242188 9.234375 28.257812 9.074219 28.316406 8.929688 C 28.554688 8.347656 29.5 8.128906 29.460938 7.5 C 29.429688 7 29.039062 6.804688 28.535156 6.769531 Z M 28.535156 6.769531 "
              fill-opacity="1" fill-rule="nonzero"/>
    </g>
    <path fill="#cc5248"
          d="M 24.152344 20.648438 C 23.492188 20.917969 22.808594 21.121094 22.117188 21.296875 C 22.113281 21.300781 22.113281 21.300781 22.113281 21.304688 C 22.097656 21.320312 22.078125 21.320312 22.0625 21.3125 C 21.660156 21.414062 21.253906 21.511719 20.847656 21.601562 C 19.292969 21.945312 17.730469 22.25 16.164062 22.535156 C 16.144531 22.550781 16.121094 22.554688 16.097656 22.546875 C 15.671875 22.625 15.242188 22.703125 14.816406 22.777344 C 12.824219 23.128906 10.761719 23.425781 8.746094 23.109375 C 8.699219 23.105469 8.710938 23.023438 8.757812 23.03125 C 9.03125 23.054688 9.304688 23.074219 9.574219 23.085938 C 9.484375 23.011719 9.402344 22.914062 9.332031 22.835938 C 9.230469 22.722656 9.140625 22.601562 9.050781 22.480469 C 8.863281 22.230469 8.695312 21.960938 8.550781 21.683594 C 8.25 21.125 8.042969 20.523438 7.921875 19.902344 C 7.917969 19.867188 7.96875 19.851562 7.976562 19.886719 C 8.136719 20.488281 8.371094 21.070312 8.671875 21.613281 C 8.820312 21.878906 8.984375 22.136719 9.164062 22.382812 C 9.257812 22.511719 9.359375 22.636719 9.457031 22.761719 C 9.539062 22.867188 9.640625 22.972656 9.703125 23.089844 C 10.527344 23.121094 11.347656 23.09375 12.167969 23.015625 C 12.316406 23 12.460938 22.980469 12.609375 22.964844 C 12.484375 22.769531 12.402344 22.53125 12.3125 22.324219 C 12.199219 22.074219 12.089844 21.828125 11.984375 21.578125 C 11.773438 21.09375 11.546875 20.613281 11.421875 20.101562 C 11.414062 20.070312 11.457031 20.058594 11.46875 20.089844 C 11.644531 20.59375 11.902344 21.078125 12.121094 21.5625 C 12.234375 21.8125 12.34375 22.058594 12.453125 22.308594 C 12.546875 22.515625 12.667969 22.730469 12.722656 22.953125 C 13.835938 22.820312 14.941406 22.617188 16.042969 22.402344 C 15.996094 21.375 15.757812 20.382812 15.472656 19.394531 C 15.464844 19.367188 15.507812 19.355469 15.519531 19.382812 C 15.839844 20.347656 16.207031 21.339844 16.191406 22.371094 C 16.890625 22.234375 17.589844 22.089844 18.289062 21.957031 C 18.582031 21.902344 18.875 21.84375 19.164062 21.785156 C 19.171875 21.535156 19.214844 21.285156 19.230469 21.035156 C 19.246094 20.785156 19.257812 20.53125 19.261719 20.277344 C 19.277344 19.761719 19.285156 19.238281 19.242188 18.726562 C 19.238281 18.695312 19.285156 18.695312 19.289062 18.726562 C 19.355469 19.253906 19.414062 19.773438 19.414062 20.308594 C 19.414062 20.570312 19.40625 20.835938 19.386719 21.097656 C 19.371094 21.304688 19.363281 21.519531 19.328125 21.722656 C 19.339844 21.726562 19.34375 21.738281 19.34375 21.75 C 19.984375 21.625 20.621094 21.496094 21.253906 21.347656 C 21.527344 21.285156 21.800781 21.214844 22.074219 21.144531 C 22.105469 21.046875 22.148438 20.953125 22.1875 20.863281 C 22.238281 20.738281 22.285156 20.617188 22.332031 20.492188 C 22.421875 20.242188 22.5 19.984375 22.5625 19.726562 C 22.691406 19.199219 22.726562 18.667969 22.800781 18.132812 C 22.808594 18.097656 22.855469 18.109375 22.859375 18.140625 C 22.917969 18.679688 22.820312 19.265625 22.695312 19.792969 C 22.628906 20.070312 22.546875 20.34375 22.445312 20.609375 C 22.386719 20.765625 22.328125 20.945312 22.246094 21.101562 C 22.878906 20.941406 23.511719 20.769531 24.140625 20.597656 C 24.171875 20.589844 24.183594 20.636719 24.152344 20.648438 Z M 21.816406 9.160156 C 21.882812 8.992188 21.941406 8.824219 21.996094 8.65625 C 22.011719 8.65625 22.027344 8.660156 22.046875 8.664062 C 22.125 8.675781 22.199219 8.691406 22.277344 8.707031 C 22.417969 8.738281 22.5625 8.769531 22.703125 8.804688 C 22.996094 8.875 23.289062 8.957031 23.574219 9.046875 C 23.597656 9.054688 23.613281 9.015625 23.589844 9.007812 C 23.316406 8.875 23.03125 8.765625 22.738281 8.679688 C 22.585938 8.636719 22.4375 8.601562 22.28125 8.566406 C 22.210938 8.550781 22.140625 8.539062 22.066406 8.523438 C 22.058594 8.523438 22.046875 8.519531 22.039062 8.519531 C 22.109375 8.277344 22.175781 8.03125 22.246094 7.785156 C 22.367188 7.351562 22.492188 6.917969 22.605469 6.484375 C 22.671875 6.496094 22.738281 6.5 22.800781 6.507812 C 22.910156 6.515625 23.023438 6.523438 23.132812 6.535156 C 23.332031 6.546875 23.53125 6.5625 23.734375 6.578125 C 24.140625 6.613281 24.570312 6.644531 24.957031 6.78125 C 24.988281 6.792969 25.003906 6.742188 24.972656 6.730469 C 24.582031 6.574219 24.195312 6.488281 23.777344 6.445312 C 23.5625 6.421875 23.347656 6.40625 23.132812 6.386719 C 22.980469 6.375 22.800781 6.339844 22.640625 6.347656 C 22.738281 5.941406 22.808594 5.53125 22.855469 5.113281 C 22.886719 4.808594 22.917969 4.496094 22.929688 4.1875 C 22.929688 4.1875 22.933594 4.1875 22.933594 4.1875 C 22.9375 4.183594 22.941406 4.179688 22.945312 4.175781 C 23.136719 4.109375 23.316406 4.035156 23.515625 3.992188 C 23.738281 3.945312 23.96875 3.921875 24.199219 3.917969 C 24.664062 3.910156 25.152344 3.988281 25.582031 4.167969 C 25.617188 4.183594 25.648438 4.136719 25.613281 4.117188 C 25.179688 3.90625 24.730469 3.777344 24.242188 3.765625 C 24.007812 3.757812 23.769531 3.78125 23.539062 3.828125 C 23.34375 3.863281 23.121094 3.914062 22.9375 4.003906 C 22.9375 3.898438 22.9375 3.792969 22.929688 3.6875 C 22.925781 3.644531 22.859375 3.628906 22.851562 3.675781 C 22.777344 4.101562 22.769531 4.535156 22.722656 4.964844 C 22.667969 5.445312 22.585938 5.925781 22.464844 6.398438 C 22.230469 7.308594 21.902344 8.210938 21.75 9.140625 C 21.742188 9.1875 21.800781 9.203125 21.816406 9.160156 Z M 28.296875 7.117188 C 28.300781 7.082031 28.242188 7.074219 28.234375 7.109375 C 28.226562 7.128906 28.21875 7.152344 28.210938 7.171875 C 28.191406 7.011719 28.140625 6.851562 28.082031 6.703125 C 27.984375 6.445312 27.851562 6.203125 27.703125 5.972656 C 27.40625 5.523438 27.035156 5.164062 26.597656 4.855469 C 26.574219 4.835938 26.539062 4.878906 26.566406 4.898438 C 26.953125 5.207031 27.300781 5.605469 27.570312 6.023438 C 27.710938 6.246094 27.835938 6.476562 27.929688 6.71875 C 28.023438 6.957031 28.054688 7.199219 28.117188 7.441406 C 27.976562 7.800781 27.789062 8.132812 27.566406 8.445312 C 27.523438 8.371094 27.460938 8.304688 27.40625 8.25 C 27.289062 8.128906 27.148438 8.03125 27 7.945312 C 26.660156 7.738281 26.296875 7.605469 25.914062 7.5 C 25.875 7.488281 25.859375 7.546875 25.898438 7.558594 C 26.242188 7.683594 26.578125 7.859375 26.890625 8.050781 C 27.027344 8.132812 27.15625 8.222656 27.273438 8.332031 C 27.332031 8.386719 27.382812 8.445312 27.429688 8.511719 C 27.445312 8.53125 27.460938 8.554688 27.472656 8.574219 C 27.28125 8.832031 27.066406 9.074219 26.835938 9.308594 C 26.46875 9.679688 26.070312 10.023438 25.675781 10.367188 C 25.652344 10.292969 25.621094 10.222656 25.570312 10.152344 C 25.5 10.050781 25.417969 9.953125 25.328125 9.867188 C 25.148438 9.691406 24.9375 9.554688 24.691406 9.488281 C 24.65625 9.480469 24.640625 9.523438 24.667969 9.542969 C 24.863281 9.667969 25.058594 9.804688 25.222656 9.972656 C 25.304688 10.050781 25.378906 10.140625 25.445312 10.234375 C 25.492188 10.308594 25.539062 10.375 25.59375 10.441406 C 25.296875 10.699219 25 10.964844 24.722656 11.246094 C 24.691406 11.277344 24.730469 11.328125 24.765625 11.304688 C 25.199219 11.03125 25.582031 10.6875 25.964844 10.347656 C 26.332031 10.015625 26.699219 9.679688 27.039062 9.324219 C 27.234375 9.121094 27.421875 8.90625 27.59375 8.679688 C 27.609375 8.675781 27.621094 8.667969 27.625 8.65625 C 27.625 8.648438 27.621094 8.644531 27.621094 8.640625 C 27.960938 8.183594 28.222656 7.679688 28.296875 7.117188 Z M 6.722656 11.921875 C 6.445312 12.363281 6.171875 12.796875 5.945312 13.261719 C 5.894531 13.371094 5.832031 13.492188 5.769531 13.617188 C 5.609375 13.519531 5.417969 13.457031 5.25 13.382812 C 5.050781 13.289062 4.851562 13.191406 4.660156 13.089844 C 4.613281 13.066406 4.570312 13.039062 4.527344 13.015625 C 4.570312 12.925781 4.59375 12.820312 4.625 12.730469 C 4.671875 12.601562 4.71875 12.472656 4.777344 12.347656 C 4.890625 12.105469 5.03125 11.875 5.191406 11.660156 C 5.210938 11.636719 5.171875 11.605469 5.152344 11.628906 C 4.980469 11.835938 4.824219 12.0625 4.695312 12.300781 C 4.632812 12.414062 4.570312 12.53125 4.519531 12.652344 C 4.496094 12.714844 4.46875 12.78125 4.449219 12.84375 C 4.4375 12.878906 4.425781 12.914062 4.417969 12.949219 C 4.113281 12.78125 3.820312 12.597656 3.535156 12.398438 C 3.394531 12.300781 3.257812 12.191406 3.121094 12.085938 C 3.125 12.0625 3.128906 12.03125 3.132812 12.015625 C 3.148438 11.960938 3.164062 11.90625 3.179688 11.851562 C 3.210938 11.738281 3.25 11.625 3.289062 11.511719 C 3.375 11.273438 3.480469 11.042969 3.601562 10.820312 C 3.835938 10.382812 4.121094 9.972656 4.464844 9.613281 C 4.480469 9.597656 4.453125 9.570312 4.4375 9.585938 C 4.054688 9.941406 3.726562 10.339844 3.472656 10.792969 C 3.351562 11.011719 3.246094 11.242188 3.160156 11.476562 C 3.117188 11.597656 3.078125 11.714844 3.042969 11.835938 C 3.027344 11.882812 3.007812 11.9375 2.992188 11.988281 C 2.625 11.695312 2.277344 11.375 1.945312 11.039062 C 1.964844 10.757812 1.972656 10.484375 2.042969 10.207031 C 2.117188 9.921875 2.226562 9.648438 2.367188 9.386719 C 2.496094 9.140625 2.652344 8.90625 2.808594 8.671875 C 2.964844 8.445312 3.148438 8.222656 3.289062 7.984375 C 3.304688 7.964844 3.273438 7.941406 3.253906 7.957031 C 3.046875 8.160156 2.867188 8.40625 2.691406 8.636719 C 2.507812 8.886719 2.339844 9.148438 2.203125 9.425781 C 1.984375 9.867188 1.785156 10.433594 1.855469 10.941406 C 1.75 10.835938 1.644531 10.726562 1.542969 10.617188 C 1.519531 10.59375 1.472656 10.628906 1.492188 10.65625 C 1.925781 11.226562 2.429688 11.726562 2.984375 12.171875 C 2.984375 12.171875 2.984375 12.175781 2.984375 12.175781 C 2.996094 12.203125 3.015625 12.222656 3.046875 12.222656 C 3.046875 12.222656 3.046875 12.222656 3.050781 12.222656 C 3.175781 12.320312 3.300781 12.421875 3.429688 12.515625 C 3.804688 12.78125 4.199219 13.027344 4.605469 13.242188 C 4.8125 13.347656 5.019531 13.449219 5.230469 13.542969 C 5.382812 13.613281 5.550781 13.695312 5.71875 13.730469 C 5.59375 14.015625 5.503906 14.320312 5.617188 14.59375 C 5.628906 14.621094 5.671875 14.617188 5.671875 14.585938 C 5.707031 14.09375 5.914062 13.660156 6.125 13.222656 C 6.328125 12.792969 6.527344 12.359375 6.761719 11.945312 C 6.777344 11.921875 6.738281 11.898438 6.722656 11.921875 Z M 24.6875 11.316406 C 24.535156 11.171875 24.371094 11.039062 24.203125 10.914062 C 23.839844 10.644531 23.460938 10.367188 23.050781 10.179688 C 23.023438 10.167969 22.996094 10.199219 23.019531 10.21875 C 23.34375 10.503906 23.710938 10.734375 24.054688 10.996094 C 24.21875 11.117188 24.378906 11.242188 24.527344 11.378906 C 24.679688 11.519531 24.800781 11.691406 24.964844 11.820312 C 24.996094 11.839844 25.050781 11.820312 25.039062 11.777344 C 24.976562 11.589844 24.828125 11.449219 24.6875 11.316406 Z M 8.332031 11.132812 C 8.351562 11.160156 8.414062 11.144531 8.394531 11.105469 C 8.054688 10.300781 7.574219 9.554688 7.179688 8.773438 C 6.8125 8.03125 6.492188 7.273438 6.191406 6.503906 C 6.195312 6.488281 6.199219 6.46875 6.179688 6.460938 C 6.175781 6.457031 6.171875 6.457031 6.171875 6.457031 C 6.144531 6.390625 6.117188 6.324219 6.089844 6.257812 C 6.078125 6.21875 6.019531 6.234375 6.03125 6.273438 C 6.042969 6.328125 6.0625 6.382812 6.078125 6.4375 C 6.027344 6.433594 5.972656 6.441406 5.921875 6.449219 C 5.820312 6.457031 5.722656 6.472656 5.625 6.488281 C 5.410156 6.527344 5.195312 6.582031 4.988281 6.648438 C 4.585938 6.785156 4.195312 6.964844 3.851562 7.214844 C 3.828125 7.230469 3.847656 7.269531 3.875 7.253906 C 4.242188 7.058594 4.617188 6.882812 5.019531 6.761719 C 5.210938 6.707031 5.402344 6.660156 5.601562 6.625 C 5.707031 6.605469 5.8125 6.589844 5.921875 6.578125 C 5.984375 6.570312 6.050781 6.574219 6.109375 6.554688 C 6.289062 7.183594 6.539062 7.792969 6.820312 8.386719 C 6.765625 8.394531 6.710938 8.410156 6.671875 8.421875 C 6.515625 8.46875 6.355469 8.511719 6.203125 8.566406 C 5.902344 8.671875 5.613281 8.800781 5.351562 8.988281 C 5.328125 9.003906 5.347656 9.042969 5.375 9.027344 C 5.625 8.871094 5.90625 8.769531 6.191406 8.6875 C 6.421875 8.621094 6.652344 8.5625 6.882812 8.519531 C 6.921875 8.597656 6.957031 8.675781 6.996094 8.753906 C 7.199219 9.160156 7.402344 9.578125 7.625 9.988281 C 7.582031 10.003906 7.539062 10.035156 7.5 10.058594 C 7.449219 10.089844 7.394531 10.121094 7.34375 10.15625 C 7.238281 10.230469 7.132812 10.304688 7.03125 10.382812 C 7.003906 10.40625 7.027344 10.453125 7.0625 10.433594 C 7.171875 10.371094 7.285156 10.308594 7.398438 10.25 C 7.453125 10.222656 7.507812 10.191406 7.5625 10.160156 C 7.601562 10.140625 7.644531 10.117188 7.679688 10.085938 C 7.882812 10.449219 8.09375 10.800781 8.332031 11.132812 Z M 9.050781 11.921875 C 9 11.996094 8.945312 12.074219 8.894531 12.152344 C 8.792969 12.308594 8.695312 12.464844 8.597656 12.621094 C 8.390625 12.945312 8.199219 13.28125 7.996094 13.609375 C 7.980469 13.636719 8.023438 13.660156 8.039062 13.632812 C 8.253906 13.320312 8.476562 13.011719 8.691406 12.695312 C 8.792969 12.546875 8.890625 12.398438 8.988281 12.246094 C 9.039062 12.167969 9.09375 12.09375 9.144531 12.015625 C 9.191406 11.949219 9.261719 11.878906 9.277344 11.796875 C 9.277344 11.792969 9.273438 11.789062 9.273438 11.785156 C 10.039062 11.851562 10.8125 11.84375 11.578125 11.824219 C 11.746094 11.820312 11.917969 11.808594 12.085938 11.804688 C 12.023438 12.480469 11.933594 13.152344 11.832031 13.824219 C 11.828125 13.855469 11.875 13.871094 11.882812 13.839844 C 12.046875 13.167969 12.152344 12.484375 12.210938 11.796875 C 12.910156 11.769531 13.605469 11.730469 14.300781 11.664062 C 14.53125 11.640625 14.761719 11.617188 14.992188 11.59375 C 14.96875 11.867188 14.925781 12.140625 14.910156 12.417969 C 14.902344 12.578125 14.898438 12.742188 14.902344 12.90625 C 14.910156 13.074219 14.933594 13.242188 14.949219 13.414062 C 14.953125 13.457031 15.019531 13.457031 15.019531 13.414062 C 15.015625 13.078125 15.042969 12.734375 15.0625 12.398438 C 15.074219 12.234375 15.089844 12.074219 15.109375 11.910156 C 15.121094 11.816406 15.132812 11.726562 15.144531 11.632812 C 15.148438 11.613281 15.148438 11.59375 15.152344 11.574219 C 15.988281 11.484375 16.824219 11.367188 17.652344 11.210938 C 17.65625 11.234375 17.664062 11.261719 17.671875 11.285156 C 17.691406 11.363281 17.714844 11.445312 17.734375 11.523438 C 17.777344 11.671875 17.816406 11.820312 17.855469 11.96875 C 17.933594 12.242188 17.988281 12.542969 18.128906 12.789062 C 18.144531 12.820312 18.191406 12.792969 18.175781 12.761719 C 18.113281 12.644531 18.089844 12.519531 18.0625 12.394531 C 18.03125 12.246094 17.996094 12.101562 17.964844 11.957031 C 17.933594 11.816406 17.902344 11.679688 17.871094 11.539062 C 17.855469 11.46875 17.835938 11.398438 17.820312 11.328125 C 17.8125 11.296875 17.804688 11.265625 17.796875 11.234375 C 17.792969 11.222656 17.789062 11.203125 17.785156 11.183594 C 18.320312 11.078125 18.847656 10.957031 19.371094 10.808594 C 19.632812 10.734375 19.894531 10.648438 20.148438 10.554688 C 20.226562 10.640625 20.335938 10.707031 20.421875 10.78125 C 20.542969 10.878906 20.664062 10.980469 20.785156 11.078125 C 21.023438 11.273438 21.261719 11.472656 21.492188 11.675781 C 21.515625 11.699219 21.554688 11.664062 21.527344 11.636719 C 21.3125 11.414062 21.097656 11.191406 20.867188 10.980469 C 20.75 10.875 20.632812 10.773438 20.511719 10.671875 C 20.449219 10.617188 20.378906 10.550781 20.308594 10.492188 C 20.8125 10.292969 21.292969 10.042969 21.71875 9.699219 C 21.746094 9.679688 21.710938 9.640625 21.683594 9.65625 C 20.992188 10.050781 20.257812 10.375 19.492188 10.605469 C 18.722656 10.839844 17.929688 10.992188 17.136719 11.128906 C 15.390625 11.425781 13.625 11.601562 11.851562 11.660156 C 10.851562 11.691406 9.851562 11.644531 8.851562 11.6875 C 8.8125 11.6875 8.8125 11.742188 8.851562 11.746094 C 8.957031 11.757812 9.066406 11.765625 9.171875 11.777344 C 9.125 11.816406 9.085938 11.871094 9.050781 11.921875 Z M 9.050781 11.921875 "
          fill-opacity="1" fill-rule="nonzero"/>
</svg>