<svg xmlns="http://www.w3.org/2000/svg" xmlns:xlink="http://www.w3.org/1999/xlink" width="40" zoomAndPan="magnify" viewBox="0 0 30 30.000001" height="40" preserveAspectRatio="xMidYMid meet" version="1.0"><defs><clipPath id="50ba98146a"><path d="M 0.484375 6 L 11 6 L 11 24 L 0.484375 24 Z M 0.484375 6 " clip-rule="nonzero"/></clipPath><clipPath id="4997b7e4df"><path d="M 7 3.519531 L 23 3.519531 L 23 7 L 7 7 Z M 7 3.519531 " clip-rule="nonzero"/></clipPath><clipPath id="c67d299a61"><path d="M 20 6 L 29.515625 6 L 29.515625 24 L 20 24 Z M 20 6 " clip-rule="nonzero"/></clipPath><clipPath id="a65b7792ae"><path d="M 0.484375 3.519531 L 29.515625 3.519531 L 29.515625 25.292969 L 0.484375 25.292969 Z M 0.484375 3.519531 " clip-rule="nonzero"/></clipPath></defs><path fill="#db3e4a" d="M 14.652344 7.445312 C 14.648438 7.445312 14.648438 7.445312 14.644531 7.445312 C 14.601562 7.445312 14.5625 7.433594 14.53125 7.414062 C 12.964844 7.347656 11.695312 7.265625 10.6875 7.175781 L 7.398438 24.152344 C 7.398438 24.164062 7.394531 24.175781 7.390625 24.183594 C 7.40625 24.21875 7.421875 24.246094 7.433594 24.273438 C 7.683594 24.386719 8.648438 24.761719 10.570312 24.824219 C 12.550781 24.890625 13.398438 24.621094 13.578125 24.554688 L 14.960938 7.433594 C 14.859375 7.4375 14.753906 7.441406 14.652344 7.445312 Z M 14.652344 7.445312 " fill-opacity="1" fill-rule="nonzero"/><path fill="#af3348" d="M 13.894531 24.277344 C 14.125 24.101562 14.445312 23.917969 14.777344 23.90625 C 14.894531 23.875 15.199219 23.839844 15.773438 24.011719 C 15.90625 24.050781 16.023438 24.117188 16.121094 24.191406 L 15.152344 8.726562 Z M 13.894531 24.277344 " fill-opacity="1" fill-rule="nonzero"/><path fill="#af3348" d="M 10.324219 7.144531 L 5.390625 23.609375 C 5.613281 23.539062 5.929688 23.484375 6.332031 23.523438 C 6.71875 23.5625 6.980469 23.710938 7.152344 23.875 L 10.390625 7.148438 C 10.367188 7.148438 10.347656 7.144531 10.324219 7.144531 Z M 10.324219 7.144531 " fill-opacity="1" fill-rule="nonzero"/><path fill="#998675" d="M 20.988281 5.855469 C 21.277344 5.855469 21.511719 5.597656 21.511719 5.285156 C 21.511719 4.972656 21.277344 4.714844 20.988281 4.714844 C 20.699219 4.714844 20.464844 4.972656 20.464844 5.285156 C 20.464844 5.597656 20.699219 5.855469 20.988281 5.855469 Z M 20.988281 5.855469 " fill-opacity="1" fill-rule="nonzero"/><g clip-path="url(#50ba98146a)"><path fill="#db3e4a" d="M 7.433594 6.757812 C 6.808594 7.90625 4.175781 12.84375 2.738281 16.769531 C 1.445312 20.300781 1.070312 21.726562 0.972656 22.160156 C 2.347656 22.796875 4.398438 23.664062 5.042969 23.746094 L 10.027344 7.113281 C 8.554688 6.96875 7.753906 6.824219 7.433594 6.757812 Z M 7.433594 6.757812 " fill-opacity="1" fill-rule="nonzero"/></g><g clip-path="url(#4997b7e4df)"><path fill="#db3e4a" d="M 22.410156 6.34375 C 22.359375 6.0625 22.101562 4.660156 21.953125 3.992188 C 21.074219 4.085938 17.453125 4.453125 15.011719 4.433594 C 12.566406 4.457031 8.933594 4.125 8.058594 4.042969 C 7.917969 4.675781 7.675781 5.976562 7.609375 6.347656 C 8.28125 6.476562 10.464844 6.824219 15.003906 6.992188 C 19.566406 6.824219 21.75 6.472656 22.410156 6.34375 Z M 20.988281 4.425781 C 21.4375 4.425781 21.804688 4.8125 21.804688 5.285156 C 21.804688 5.761719 21.4375 6.144531 20.988281 6.144531 C 20.535156 6.144531 20.167969 5.761719 20.167969 5.285156 C 20.167969 4.8125 20.535156 4.425781 20.988281 4.425781 Z M 20.988281 4.425781 " fill-opacity="1" fill-rule="nonzero"/></g><g clip-path="url(#c67d299a61)"><path fill="#db3e4a" d="M 22.601562 6.753906 C 22.300781 6.816406 21.5 6.964844 20 7.113281 L 24.96875 23.695312 C 25.609375 23.613281 27.664062 22.746094 29.039062 22.109375 C 28.9375 21.675781 28.5625 20.253906 27.273438 16.71875 C 25.851562 12.84375 23.265625 7.980469 22.601562 6.753906 Z M 22.601562 6.753906 " fill-opacity="1" fill-rule="nonzero"/></g><path fill="#db3e4a" d="M 19.332031 7.175781 C 18.320312 7.265625 17.050781 7.347656 15.480469 7.414062 C 15.445312 7.433594 15.40625 7.445312 15.367188 7.445312 L 16.4375 24.5 C 16.4375 24.5 16.441406 24.503906 16.445312 24.507812 C 16.640625 24.582031 17.492188 24.835938 19.441406 24.773438 C 21.363281 24.710938 22.324219 24.335938 22.578125 24.222656 C 22.589844 24.195312 22.601562 24.167969 22.621094 24.132812 C 22.617188 24.125 22.613281 24.113281 22.609375 24.101562 Z M 19.332031 7.175781 " fill-opacity="1" fill-rule="nonzero"/><path fill="#af3348" d="M 19.628906 7.148438 L 22.855469 23.824219 C 23.03125 23.660156 23.289062 23.511719 23.679688 23.472656 C 24.082031 23.433594 24.394531 23.488281 24.617188 23.558594 L 19.699219 7.140625 C 19.675781 7.144531 19.652344 7.148438 19.628906 7.148438 Z M 19.628906 7.148438 " fill-opacity="1" fill-rule="nonzero"/><g clip-path="url(#a65b7792ae)"><path fill="#000000" d="M 27.6875 16.570312 C 26.109375 12.261719 23.105469 6.75 22.847656 6.285156 C 22.796875 6.007812 22.480469 4.277344 22.335938 3.699219 C 22.308594 3.59375 22.207031 3.523438 22.097656 3.535156 C 22.054688 3.539062 18.003906 3.992188 15.25 3.996094 C 15.238281 3.996094 15.222656 3.992188 15.207031 3.996094 C 15.144531 3.996094 15.078125 3.996094 15.011719 3.996094 C 14.941406 3.996094 14.871094 3.996094 14.804688 3.996094 C 14.789062 3.992188 14.773438 3.996094 14.757812 3.996094 C 12 3.996094 7.953125 3.589844 7.910156 3.585938 C 7.800781 3.574219 7.699219 3.644531 7.675781 3.75 C 7.527344 4.328125 7.210938 6.058594 7.160156 6.335938 C 6.90625 6.800781 3.898438 12.3125 2.324219 16.621094 C 0.679688 21.109375 0.507812 22.210938 0.5 22.253906 C 0.488281 22.351562 0.539062 22.445312 0.625 22.484375 C 1 22.660156 4.316406 24.191406 5.128906 24.191406 C 5.175781 24.191406 5.226562 24.175781 5.265625 24.144531 C 5.277344 24.136719 5.613281 23.894531 6.289062 23.960938 C 6.902344 24.019531 7.035156 24.46875 7.039062 24.484375 C 7.054688 24.542969 7.09375 24.59375 7.144531 24.621094 C 7.183594 24.644531 8.164062 25.183594 10.554688 25.261719 C 10.769531 25.269531 10.972656 25.273438 11.164062 25.273438 C 13.085938 25.273438 13.777344 24.949219 13.808594 24.933594 C 13.832031 24.921875 13.855469 24.90625 13.875 24.882812 C 14.011719 24.734375 14.441406 24.34375 14.8125 24.34375 C 14.847656 24.34375 14.863281 24.34375 14.890625 24.328125 C 14.925781 24.320312 15.148438 24.28125 15.644531 24.429688 C 15.925781 24.515625 16.109375 24.800781 16.113281 24.804688 C 16.132812 24.835938 16.164062 24.867188 16.203125 24.882812 C 16.238281 24.898438 17.066406 25.289062 19.457031 25.210938 C 21.847656 25.132812 22.824219 24.59375 22.867188 24.570312 C 22.917969 24.539062 22.957031 24.492188 22.96875 24.433594 C 22.972656 24.429688 23.097656 23.96875 23.722656 23.910156 C 24.398438 23.84375 24.734375 24.085938 24.746094 24.09375 C 24.785156 24.125 24.832031 24.140625 24.882812 24.140625 C 25.695312 24.140625 29.007812 22.609375 29.382812 22.433594 C 29.472656 22.394531 29.523438 22.300781 29.507812 22.203125 C 29.503906 22.160156 29.328125 21.058594 27.6875 16.570312 Z M 8.058594 4.042969 C 8.933594 4.125 12.566406 4.457031 15.011719 4.433594 C 17.453125 4.453125 21.074219 4.085938 21.949219 3.992188 C 22.101562 4.660156 22.359375 6.0625 22.410156 6.34375 C 21.75 6.472656 19.566406 6.824219 15.003906 6.992188 C 10.464844 6.824219 8.28125 6.476562 7.609375 6.347656 C 7.675781 5.976562 7.917969 4.675781 8.058594 4.042969 Z M 5.042969 23.746094 C 4.398438 23.664062 2.347656 22.796875 0.972656 22.160156 C 1.070312 21.726562 1.445312 20.300781 2.738281 16.769531 C 4.175781 12.84375 6.808594 7.90625 7.433594 6.757812 C 7.753906 6.824219 8.554688 6.96875 10.027344 7.113281 Z M 6.332031 23.523438 C 5.929688 23.484375 5.613281 23.539062 5.390625 23.609375 L 10.324219 7.144531 C 10.347656 7.144531 10.367188 7.148438 10.390625 7.148438 L 7.152344 23.875 C 6.980469 23.710938 6.71875 23.5625 6.332031 23.523438 Z M 13.578125 24.554688 C 13.398438 24.621094 12.550781 24.890625 10.570312 24.824219 C 8.648438 24.761719 7.683594 24.386719 7.433594 24.273438 C 7.421875 24.246094 7.40625 24.21875 7.390625 24.183594 C 7.394531 24.175781 7.398438 24.164062 7.398438 24.152344 L 10.6875 7.175781 C 11.695312 7.265625 12.964844 7.347656 14.53125 7.414062 C 14.5625 7.433594 14.601562 7.445312 14.644531 7.445312 C 14.648438 7.445312 14.648438 7.445312 14.652344 7.445312 C 14.753906 7.441406 14.859375 7.4375 14.960938 7.433594 Z M 15.773438 24.011719 C 15.199219 23.839844 14.894531 23.875 14.777344 23.90625 C 14.445312 23.917969 14.125 24.101562 13.894531 24.277344 L 15.152344 8.726562 L 16.121094 24.191406 C 16.023438 24.117188 15.90625 24.050781 15.773438 24.011719 Z M 22.578125 24.222656 C 22.324219 24.335938 21.363281 24.710938 19.441406 24.773438 C 17.492188 24.835938 16.640625 24.582031 16.445312 24.507812 C 16.441406 24.503906 16.4375 24.5 16.4375 24.5 L 15.367188 7.445312 C 15.40625 7.445312 15.445312 7.433594 15.480469 7.414062 C 17.050781 7.347656 18.320312 7.265625 19.332031 7.175781 L 22.609375 24.101562 C 22.613281 24.113281 22.617188 24.125 22.621094 24.132812 C 22.601562 24.167969 22.589844 24.195312 22.578125 24.222656 Z M 23.679688 23.472656 C 23.289062 23.511719 23.03125 23.660156 22.855469 23.824219 L 19.628906 7.148438 C 19.652344 7.148438 19.675781 7.144531 19.699219 7.140625 L 24.617188 23.558594 C 24.394531 23.488281 24.082031 23.433594 23.679688 23.472656 Z M 24.96875 23.695312 L 20 7.113281 C 21.5 6.964844 22.300781 6.816406 22.601562 6.753906 C 23.265625 7.980469 25.851562 12.84375 27.273438 16.71875 C 28.5625 20.253906 28.9375 21.675781 29.039062 22.109375 C 27.664062 22.746094 25.609375 23.613281 24.96875 23.695312 Z M 24.96875 23.695312 " fill-opacity="1" fill-rule="nonzero"/></g><path fill="#000000" d="M 20.988281 6.144531 C 21.4375 6.144531 21.804688 5.761719 21.804688 5.285156 C 21.804688 4.8125 21.4375 4.425781 20.988281 4.425781 C 20.535156 4.425781 20.167969 4.8125 20.167969 5.285156 C 20.167969 5.761719 20.535156 6.144531 20.988281 6.144531 Z M 20.988281 4.714844 C 21.277344 4.714844 21.511719 4.972656 21.511719 5.285156 C 21.511719 5.597656 21.277344 5.855469 20.988281 5.855469 C 20.699219 5.855469 20.464844 5.597656 20.464844 5.285156 C 20.464844 4.972656 20.699219 4.714844 20.988281 4.714844 Z M 20.988281 4.714844 " fill-opacity="1" fill-rule="nonzero"/></svg>