<svg xmlns="http://www.w3.org/2000/svg" xmlns:xlink="http://www.w3.org/1999/xlink" width="40" zoomAndPan="magnify" viewBox="0 0 30 30.000001" height="40" preserveAspectRatio="xMidYMid meet" version="1.0"><defs><clipPath id="130fa322c6"><path d="M 7 20 L 23 20 L 23 28.160156 L 7 28.160156 Z M 7 20 " clip-rule="nonzero"/></clipPath><clipPath id="8d4fbe0c4b"><path d="M 0.484375 0.582031 L 29.515625 0.582031 L 29.515625 21 L 0.484375 21 Z M 0.484375 0.582031 " clip-rule="nonzero"/></clipPath><clipPath id="97fc07ab1f"><path d="M 11 0.582031 L 19 0.582031 L 19 10 L 11 10 Z M 11 0.582031 " clip-rule="nonzero"/></clipPath><clipPath id="702d5291f1"><path d="M 9 0.582031 L 21 0.582031 L 21 10 L 9 10 Z M 9 0.582031 " clip-rule="nonzero"/></clipPath><clipPath id="040043b881"><path d="M 0.484375 0.582031 L 29.515625 0.582031 L 29.515625 21 L 0.484375 21 Z M 0.484375 0.582031 " clip-rule="nonzero"/></clipPath><clipPath id="7861034f20"><path d="M 11 0.582031 L 16 0.582031 L 16 21 L 11 21 Z M 11 0.582031 " clip-rule="nonzero"/></clipPath><clipPath id="747b18f19e"><path d="M 14 0.582031 L 19 0.582031 L 19 11 L 14 11 Z M 14 0.582031 " clip-rule="nonzero"/></clipPath></defs><g clip-path="url(#130fa322c6)"><path fill="#fc8e8d" d="M 8.128906 20.226562 C 8.128906 20.226562 7.367188 24.003906 7.367188 27.027344 C 10.878906 27.027344 14.238281 28.160156 14.238281 28.160156 L 15 25.515625 L 15.761719 28.160156 C 15.761719 28.160156 19.503906 27.027344 22.632812 27.027344 C 22.632812 24.003906 21.871094 20.226562 21.871094 20.226562 Z M 8.128906 20.226562 " fill-opacity="1" fill-rule="nonzero"/><path fill="#cb413f" d="M 21.566406 20.605469 C 21.71875 21.511719 22.214844 24.269531 22.253906 26.648438 C 19.734375 26.726562 17.023438 27.40625 16.03125 27.671875 L 15.382812 25.402344 C 15.34375 25.253906 15.191406 25.140625 15 25.140625 C 14.808594 25.140625 14.695312 25.253906 14.617188 25.402344 L 13.96875 27.671875 C 13.015625 27.40625 10.496094 26.726562 7.746094 26.648438 C 7.785156 24.269531 8.28125 21.511719 8.433594 20.605469 L 21.566406 20.605469 M 21.871094 20.226562 L 8.128906 20.226562 C 8.128906 20.226562 7.367188 24.003906 7.367188 27.027344 C 10.878906 27.027344 14.238281 28.160156 14.238281 28.160156 L 15 25.515625 L 15.761719 28.160156 C 15.761719 28.160156 19.503906 27.027344 22.632812 27.027344 C 22.632812 24.003906 21.871094 20.226562 21.871094 20.226562 Z M 21.871094 20.226562 " fill-opacity="1" fill-rule="nonzero"/></g><g clip-path="url(#8d4fbe0c4b)"><path fill="#fc8e8d" d="M 8.128906 2.46875 C 8.894531 1.863281 11.566406 0.582031 11.566406 0.582031 L 18.433594 0.582031 C 18.433594 0.582031 21.070312 1.863281 21.871094 2.46875 C 24.046875 4.132812 29.503906 11.914062 29.503906 11.914062 L 26.832031 14.9375 L 21.871094 10.402344 L 22.632812 20.984375 L 7.367188 20.984375 L 8.128906 10.402344 L 3.550781 14.9375 L 0.496094 11.914062 C 0.496094 11.914062 5.761719 4.359375 8.128906 2.46875 Z M 8.128906 2.46875 " fill-opacity="1" fill-rule="nonzero"/></g><g clip-path="url(#97fc07ab1f)"><path fill="#ea8182" d="M 15.191406 9.460938 L 18.433594 0.769531 L 11.753906 0.769531 Z M 15.191406 9.460938 " fill-opacity="1" fill-rule="nonzero"/></g><g clip-path="url(#702d5291f1)"><path fill="#ffb3b3" d="M 15.382812 9.574219 C 15.382812 9.574219 16.183594 9.082031 16.871094 8.476562 C 17.558594 7.871094 18.511719 6.851562 18.894531 6.359375 C 19.3125 5.871094 20.152344 4.398438 20.34375 3.113281 C 20.535156 1.828125 20.535156 1.828125 20.535156 1.828125 L 18.511719 0.882812 Z M 14.921875 9.496094 C 14.921875 9.496094 13.929688 8.96875 13.28125 8.363281 C 12.632812 7.757812 11.640625 6.738281 11.257812 6.246094 C 10.878906 5.757812 9.847656 4.320312 9.65625 3.074219 C 9.464844 1.828125 9.65625 1.75 9.65625 1.75 L 11.679688 0.808594 Z M 14.921875 9.496094 " fill-opacity="1" fill-rule="nonzero"/></g><g clip-path="url(#040043b881)"><path fill="#cb413f" d="M 18.359375 0.957031 C 18.816406 1.183594 20.953125 2.242188 21.640625 2.773438 C 23.511719 4.207031 28.09375 10.554688 29.007812 11.878906 L 26.792969 14.371094 L 22.136719 10.140625 C 22.0625 10.0625 21.945312 10.027344 21.871094 10.027344 C 21.832031 10.027344 21.757812 10.027344 21.71875 10.0625 C 21.566406 10.140625 21.488281 10.289062 21.488281 10.441406 L 22.214844 20.605469 L 7.785156 20.605469 L 8.511719 10.441406 C 8.511719 10.289062 8.433594 10.140625 8.28125 10.0625 C 8.242188 10.027344 8.167969 10.027344 8.128906 10.027344 C 8.015625 10.027344 7.9375 10.0625 7.863281 10.140625 L 3.550781 14.410156 L 0.992188 11.878906 C 1.945312 10.554688 6.335938 4.398438 8.359375 2.773438 C 9.007812 2.242188 11.183594 1.183594 11.640625 0.957031 L 18.359375 0.957031 M 18.433594 0.582031 L 11.566406 0.582031 C 11.566406 0.582031 8.894531 1.863281 8.128906 2.46875 C 5.761719 4.359375 0.496094 11.914062 0.496094 11.914062 L 3.550781 14.9375 L 8.128906 10.402344 L 7.367188 20.984375 L 22.632812 20.984375 L 21.871094 10.402344 L 26.832031 14.9375 L 29.503906 11.914062 C 29.503906 11.914062 24.046875 4.132812 21.871094 2.46875 C 21.070312 1.863281 18.433594 0.582031 18.433594 0.582031 Z M 18.433594 0.582031 " fill-opacity="1" fill-rule="nonzero"/></g><g clip-path="url(#7861034f20)"><path fill="#cb413f" d="M 15.382812 20.792969 L 15 20.792969 L 15 9.875 L 11.566406 0.84375 L 11.945312 0.695312 L 15.382812 9.835938 Z M 15.382812 20.792969 " fill-opacity="1" fill-rule="nonzero"/></g><g clip-path="url(#747b18f19e)"><path fill="#cb413f" d="M 15.191406 10.027344 C 15.152344 10.027344 15.152344 10.027344 15.113281 10.027344 C 15 9.988281 14.960938 9.875 15 9.800781 L 18.246094 0.921875 C 18.28125 0.808594 18.398438 0.769531 18.472656 0.808594 C 18.589844 0.84375 18.625 0.957031 18.589844 1.035156 L 15.382812 9.914062 C 15.34375 9.988281 15.265625 10.027344 15.191406 10.027344 Z M 15.191406 10.027344 " fill-opacity="1" fill-rule="nonzero"/></g><path fill="#ffcccc" d="M 16.71875 11.539062 C 16.558594 11.539062 16.425781 11.59375 16.3125 11.703125 C 16.199219 11.8125 16.144531 11.949219 16.144531 12.105469 C 16.144531 12.261719 16.199219 12.394531 16.3125 12.503906 C 16.425781 12.617188 16.558594 12.671875 16.71875 12.671875 C 16.875 12.671875 17.011719 12.617188 17.121094 12.503906 C 17.234375 12.394531 17.289062 12.261719 17.289062 12.105469 C 17.289062 11.949219 17.234375 11.8125 17.121094 11.703125 C 17.011719 11.59375 16.875 11.539062 16.71875 11.539062 Z M 16.71875 14.558594 C 16.558594 14.558594 16.425781 14.613281 16.3125 14.726562 C 16.199219 14.835938 16.144531 14.96875 16.144531 15.125 C 16.144531 15.28125 16.199219 15.417969 16.3125 15.527344 C 16.425781 15.636719 16.558594 15.691406 16.71875 15.691406 C 16.875 15.691406 17.011719 15.636719 17.121094 15.527344 C 17.234375 15.417969 17.289062 15.28125 17.289062 15.125 C 17.289062 14.96875 17.234375 14.835938 17.121094 14.726562 C 17.011719 14.613281 16.875 14.558594 16.71875 14.558594 Z M 16.71875 17.582031 C 16.558594 17.582031 16.425781 17.636719 16.3125 17.75 C 16.199219 17.859375 16.144531 17.992188 16.144531 18.148438 C 16.144531 18.304688 16.199219 18.4375 16.3125 18.550781 C 16.425781 18.660156 16.558594 18.714844 16.71875 18.714844 C 16.875 18.714844 17.011719 18.660156 17.121094 18.550781 C 17.234375 18.4375 17.289062 18.304688 17.289062 18.148438 C 17.289062 17.992188 17.234375 17.859375 17.121094 17.75 C 17.011719 17.636719 16.875 17.582031 16.71875 17.582031 Z M 16.71875 17.582031 " fill-opacity="1" fill-rule="nonzero"/><path fill="#cb413f" d="M 15.191406 10.027344 C 15.152344 10.027344 15.113281 10.027344 15.078125 9.988281 C 14.847656 9.875 9.273438 6.550781 9.273438 1.902344 C 9.273438 1.789062 9.351562 1.714844 9.464844 1.714844 C 9.578125 1.714844 9.65625 1.789062 9.65625 1.902344 C 9.65625 5.984375 14.425781 9.15625 15.191406 9.609375 C 15.917969 9.121094 20.34375 5.984375 20.34375 1.902344 C 20.34375 1.789062 20.421875 1.714844 20.535156 1.714844 C 20.648438 1.714844 20.726562 1.789062 20.726562 1.902344 C 20.726562 6.550781 15.496094 9.875 15.304688 9.988281 C 15.265625 10.027344 15.230469 10.027344 15.191406 10.027344 Z M 15.191406 10.027344 " fill-opacity="1" fill-rule="nonzero"/><path fill="#e68180" d="M 8.398438 20.984375 L 8.242188 21.890625 L 21.792969 21.890625 L 21.601562 20.984375 C 21.601562 20.984375 8.398438 20.984375 8.398438 20.984375 Z M 8.398438 20.984375 " fill-opacity="1" fill-rule="nonzero"/></svg>