<svg xmlns="http://www.w3.org/2000/svg" xmlns:xlink="http://www.w3.org/1999/xlink" width="40" zoomAndPan="magnify" viewBox="0 0 30 30.000001" height="40" preserveAspectRatio="xMidYMid meet" version="1.0"><defs><clipPath id="6956f638fd"><path d="M 6 2.046875 L 24 2.046875 L 24 9 L 6 9 Z M 6 2.046875 " clip-rule="nonzero"/></clipPath><clipPath id="6f86726aa7"><path d="M 6 22 L 14 22 L 14 26.722656 L 6 26.722656 Z M 6 22 " clip-rule="nonzero"/></clipPath></defs><path fill="#a0041e" d="M 11.019531 4.117188 C 10.34375 4.78125 9.28125 7.460938 8.996094 9.433594 C 8.324219 14.085938 8.324219 21.394531 8.324219 21.394531 C 8.324219 21.394531 9.671875 22.058594 11.019531 22.058594 C 12.363281 22.058594 11.691406 22.722656 15.058594 22.722656 C 15.058594 22.722656 13.785156 7.492188 15.730469 4.78125 C 16.921875 3.121094 11.691406 3.453125 11.019531 4.117188 Z M 11.019531 4.117188 " fill-opacity="1" fill-rule="nonzero"/><path fill="#dd2e44" d="M 9.273438 6.597656 C 7.746094 7.464844 7.261719 8.789062 6.976562 10.761719 C 6.304688 15.414062 6.304688 22.722656 6.304688 22.722656 C 6.304688 22.722656 7.652344 23.386719 8.996094 23.386719 C 10.34375 23.386719 9.671875 24.050781 13.039062 24.050781 C 13.039062 24.050781 11.691406 8.769531 13.710938 6.113281 C 15.730469 3.453125 10.097656 6.128906 9.273438 6.597656 Z M 9.273438 6.597656 " fill-opacity="1" fill-rule="nonzero"/><path fill="#a0041e" d="M 11.34375 5.628906 C 11.34375 5.628906 9.558594 6.433594 9.273438 6.597656 C 8.316406 7.140625 7.769531 7.867188 7.421875 8.820312 C 8.691406 9.335938 10.925781 9.546875 12.796875 9.609375 C 12.804688 9.546875 13.867188 8.878906 13.867188 8.878906 L 13.867188 5.894531 Z M 11.34375 5.628906 " fill-opacity="1" fill-rule="nonzero"/><g clip-path="url(#6956f638fd)"><path fill="#dd2e44" d="M 21.78125 3.878906 C 21.167969 2.046875 17.503906 3.269531 15.058594 3.269531 C 12.570312 3.269531 8.988281 2.046875 8.363281 3.878906 C 7.742188 5.714844 5.257812 7.546875 8.988281 8.160156 C 12.714844 8.769531 15.058594 8.769531 15.058594 8.769531 C 15.058594 8.769531 17.503906 8.769531 21.167969 8.160156 C 24.835938 7.546875 22.390625 5.714844 21.78125 3.878906 Z M 21.78125 3.878906 " fill-opacity="1" fill-rule="nonzero"/></g><path fill="#a0041e" d="M 20.03125 3.363281 C 19.410156 3.363281 17.542969 3.863281 15.058594 3.863281 C 12.570312 3.863281 10.707031 3.363281 10.085938 3.363281 C 9.464844 3.363281 10.707031 4.542969 15.058594 4.542969 C 19.410156 4.542969 20.652344 3.363281 20.03125 3.363281 Z M 20.03125 3.363281 " fill-opacity="1" fill-rule="nonzero"/><g clip-path="url(#6f86726aa7)"><path fill="#dd2e44" d="M 6.476562 25.859375 C 6.304688 25.859375 6.160156 25.730469 6.140625 25.558594 C 6.101562 25.164062 6.09375 23.78125 6.300781 23.003906 C 6.347656 22.828125 6.535156 22.71875 6.710938 22.769531 C 6.890625 22.816406 6.996094 22.996094 6.949219 23.175781 C 6.765625 23.867188 6.78125 25.1875 6.8125 25.492188 C 6.828125 25.675781 6.695312 25.839844 6.507812 25.855469 Z M 7.535156 26.113281 C 7.363281 26.113281 7.214844 25.984375 7.199219 25.8125 C 7.160156 25.421875 7.152344 24.140625 7.363281 23.265625 C 7.40625 23.089844 7.589844 22.976562 7.769531 23.019531 C 7.949219 23.0625 8.0625 23.242188 8.019531 23.421875 C 7.832031 24.195312 7.835938 25.414062 7.867188 25.746094 C 7.886719 25.929688 7.75 26.09375 7.566406 26.109375 Z M 8.667969 26.34375 C 8.496094 26.34375 8.347656 26.214844 8.332031 26.042969 C 8.300781 25.742188 8.265625 24.316406 8.484375 23.398438 C 8.527344 23.222656 8.707031 23.109375 8.890625 23.152344 C 9.070312 23.195312 9.183594 23.375 9.140625 23.550781 C 8.953125 24.332031 8.972656 25.664062 9.003906 25.980469 C 9.019531 26.160156 8.886719 26.324219 8.699219 26.339844 Z M 9.917969 26.457031 C 9.730469 26.457031 9.582031 26.304688 9.582031 26.125 C 9.582031 25.917969 9.574219 25.734375 9.570312 25.558594 C 9.558594 24.953125 9.542969 24.429688 9.734375 23.613281 C 9.777344 23.433594 9.957031 23.324219 10.140625 23.363281 C 10.320312 23.402344 10.433594 23.582031 10.390625 23.761719 C 10.21875 24.496094 10.230469 24.957031 10.246094 25.542969 C 10.25 25.722656 10.253906 25.914062 10.253906 26.125 C 10.253906 26.308594 10.105469 26.457031 9.917969 26.457031 Z M 11.179688 26.703125 C 11.007812 26.703125 10.859375 26.574219 10.84375 26.402344 C 10.808594 26.03125 10.835938 24.832031 10.988281 23.992188 C 11.019531 23.8125 11.199219 23.695312 11.378906 23.726562 C 11.5625 23.757812 11.683594 23.929688 11.652344 24.109375 C 11.5 24.929688 11.484375 26.058594 11.511719 26.335938 C 11.53125 26.519531 11.394531 26.683594 11.210938 26.699219 Z M 12.667969 26.640625 C 12.496094 26.640625 12.347656 26.511719 12.332031 26.339844 C 12.308594 26.105469 12.316406 25.582031 12.328125 24.96875 C 12.332031 24.636719 12.335938 24.292969 12.335938 23.988281 C 12.335938 23.804688 12.488281 23.65625 12.675781 23.65625 C 12.859375 23.65625 13.011719 23.804688 13.011719 23.988281 C 13.011719 24.292969 13.003906 24.644531 13 24.980469 C 12.992188 25.519531 12.984375 26.078125 13 26.273438 C 13.019531 26.457031 12.882812 26.621094 12.699219 26.636719 Z M 12.667969 26.640625 " fill-opacity="1" fill-rule="nonzero"/></g><path fill="#a0041e" d="M 14.789062 25.605469 C 14.617188 25.605469 14.46875 25.476562 14.453125 25.304688 C 14.417969 24.960938 14.355469 23.804688 14.355469 22.957031 C 14.355469 22.773438 14.507812 22.625 14.695312 22.625 C 14.878906 22.625 15.03125 22.773438 15.03125 22.957031 C 15.03125 23.769531 15.09375 24.914062 15.125 25.242188 C 15.140625 25.421875 15.003906 25.585938 14.820312 25.605469 Z M 13.679688 25.542969 C 13.507812 25.542969 13.363281 25.414062 13.34375 25.242188 C 13.3125 24.898438 13.25 23.742188 13.25 22.894531 C 13.25 22.710938 13.398438 22.5625 13.585938 22.5625 C 13.773438 22.5625 13.921875 22.710938 13.921875 22.894531 C 13.921875 23.707031 13.984375 24.851562 14.015625 25.179688 C 14.035156 25.359375 13.898438 25.523438 13.710938 25.542969 Z M 13.679688 25.542969 " fill-opacity="1" fill-rule="nonzero"/></svg>